<svg width="32" height="32" viewBox="0 0 32 32" fill="none" xmlns="http://www.w3.org/2000/svg">
  <!-- Background circle with soft gradient -->
  <defs>
    <linearGradient id="bgGradient" x1="0%" y1="0%" x2="100%" y2="100%">
      <stop offset="0%" style="stop-color:#3B82F6;stop-opacity:1" />
      <stop offset="100%" style="stop-color:#6366F1;stop-opacity:1" />
    </linearGradient>
    <radialGradient id="pawGradient" cx="50%" cy="40%" r="60%">
      <stop offset="0%" style="stop-color:#FFFFFF;stop-opacity:1" />
      <stop offset="100%" style="stop-color:#F9FAFB;stop-opacity:1" />
    </radialGradient>
  </defs>
  
  <!-- Background circle -->
  <circle cx="16" cy="16" r="16" fill="url(#bgGradient)"/>
  
  <!-- Cute paw print -->
  <!-- Main paw pad -->
  <ellipse cx="16" cy="19" rx="5.5" ry="4.5" fill="url(#pawGradient)"/>
  
  <!-- Top toe pads -->
  <ellipse cx="11" cy="12" rx="2.3" ry="1.8" fill="url(#pawGradient)"/>
  <ellipse cx="16" cy="11.5" rx="2.3" ry="1.8" fill="url(#pawGradient)"/>
  <ellipse cx="21" cy="12" rx="2.3" ry="1.8" fill="url(#pawGradient)"/>
  
  <!-- Bottom toe pad -->
  <ellipse cx="16" cy="15.5" rx="2" ry="1.5" fill="url(#pawGradient)"/>
  
  <!-- Small details for texture -->
  <ellipse cx="16" cy="19" rx="3.2" ry="2.5" fill="#F8FAFC" opacity="0.3"/>
  
  <!-- Cute paw lines -->
  <path d="M13 18 Q16 19.5 19 18" stroke="#E2E8F0" stroke-width="0.7" fill="none" opacity="0.5"/>
  <path d="M11 13.5 Q13 14.5 15 13.5" stroke="#E2E8F0" stroke-width="0.6" fill="none" opacity="0.4"/>
  <path d="M17 13 Q19 14 21 13" stroke="#E2E8F0" stroke-width="0.6" fill="none" opacity="0.4"/>
  <path d="M14 16 Q16 17 18 16" stroke="#E2E8F0" stroke-width="0.6" fill="none" opacity="0.4"/>
</svg>